<svg id="SvgjsSvg1001" width="288" height="288" xmlns="http://www.w3.org/2000/svg" version="1.1" xmlns:xlink="http://www.w3.org/1999/xlink" xmlns:svgjs="http://svgjs.com/svgjs"><defs id="SvgjsDefs1002"></defs><g id="SvgjsG1008" transform="matrix(1,0,0,1,0,0)"><svg xmlns="http://www.w3.org/2000/svg" viewBox="0 0 24 24" width="288" height="288"><path fill="#4e4e4e" d="M23.5 3.006a.498.498 0 0 0-.224.054L18 6V5a2 2 0 0 0-2-2H2.59C.994 3 0 5.682 0 10s.993 7 2.59 7H16a2 2 0 0 0 2-2v-1l5.276 2.947A.496.496 0 0 0 24 16.5V3.506a.5.5 0 0 0-.5-.5z" class="color4E4E4E svgShape"></path><path fill="#4e4e4e" d="M16 3H2.59C.994 3 0 5.682 0 10s.993 7 2.59 7H16a2 2 0 002-2V5a2 2 0 00-2-2zM23.5 3.006a.498.498 0 00-.224.054L18 6v8l5.276 2.947A.496.496 0 0024 16.5V3.506a.5.5 0 00-.5-.5z" class="color4E4E4E svgShape"></path><path fill="#010101" d="M18 5l-.001.75V5zM16 16.75H2.59c-1.582 0-2.569-2.632-2.588-6.875L0 10c0 4.318.993 7 2.59 7H16a2 2 0 002-2v-.25a2 2 0 01-2 2z" opacity=".1" class="color010101 svgShape"></path><path fill="#ffffff" d="M2.59 3.25H16a2 2 0 012 2V5a2 2 0 00-2-2H2.59C.994 3 0 5.682 0 10l.002.125C.022 5.882 1.008 3.25 2.59 3.25zM17.999 6v.25H18V6z" opacity=".2" class="colorFFF svgShape"></path><linearGradient id="a" x1="16.441" x2="23.056" y1="8.441" y2="15.055" gradientUnits="userSpaceOnUse"><stop offset="0" stop-color="#010101" stop-opacity=".1" class="stopColor010101 svgShape"></stop><stop offset="1" stop-color="#010101" stop-opacity="0" class="stopColor010101 svgShape"></stop></linearGradient><path fill="url(#a)" d="M23.5 17c.265.003.5-.209.5-.5V12l-6-6v8l5.276 2.947A.522.522 0 0 0 23.5 17z"></path><circle cx="15.5" cy="5.5" r=".5" fill="#7c7c7c" class="color69B345 svgShape"></circle><linearGradient id="b" x1="15.047" x2="15.953" y1="5.289" y2="5.711" gradientUnits="userSpaceOnUse"><stop offset="0" stop-color="#ffffff" stop-opacity=".2" class="stopColorFFF svgShape"></stop><stop offset="1" stop-color="#ffffff" stop-opacity="0" class="stopColorFFF svgShape"></stop></linearGradient><circle cx="15.5" cy="5.5" r=".5" fill="url(#b)"></circle><circle cx="9.5" cy="15.5" r="5.5" fill="#676767" class="color0097CF svgShape"></circle><path fill="#010101" d="M9.5 20.75a5.622 5.622 0 0 1-5.263-3.653 5.5 5.5 0 0 0 10.526 0A5.622 5.622 0 0 1 9.5 20.75z" opacity=".1" class="color010101 svgShape"></path><path fill="#ffffff" d="M9.5 10.25a5.622 5.622 0 0 1 5.263 3.654 5.5 5.5 0 0 0-10.526 0A5.622 5.622 0 0 1 9.5 10.25z" opacity=".2" class="colorFFF svgShape"></path><path fill="#ffffff" d="M12.5 15l-3-3-3 3h2v4h2v-4z" class="colorFFF svgShape"></path><linearGradient id="c" x1="7.5" x2="13.136" y1="14" y2="19.636" gradientUnits="userSpaceOnUse"><stop offset="0" stop-color="#010101" stop-opacity=".1" class="stopColor010101 svgShape"></stop><stop offset="1" stop-color="#010101" stop-opacity="0" class="stopColor010101 svgShape"></stop></linearGradient><path fill="url(#c)" d="M12.5 15h-2v4h-2l1.917 1.917a5.5 5.5 0 0 0 4.304-3.696L12.5 15zm-4 0h-2l2 2v-2z"></path><linearGradient id="d" x1=".673" x2="24.327" y1="4.882" y2="15.912" gradientUnits="userSpaceOnUse"><stop offset="0" stop-color="#ffffff" stop-opacity=".2" class="stopColorFFF svgShape"></stop><stop offset="1" stop-color="#ffffff" stop-opacity="0" class="stopColorFFF svgShape"></stop></linearGradient><path fill="url(#d)" d="M23.5 3.006a.498.498 0 0 0-.224.054L18 6V5a2 2 0 0 0-2-2H2.59C.994 3 0 5.682 0 10s.993 7 2.59 7h1.622c.654 2.307 2.771 4 5.288 4s4.634-1.693 5.288-4H16a2 2 0 0 0 2-2v-1l5.276 2.947A.496.496 0 0 0 24 16.5V3.506a.5.5 0 0 0-.5-.5z"></path></svg></g></svg>