<svg id="SvgjsSvg1001" width="288" height="288" xmlns="http://www.w3.org/2000/svg" version="1.1" xmlns:xlink="http://www.w3.org/1999/xlink" xmlns:svgjs="http://svgjs.com/svgjs"><defs id="SvgjsDefs1002"></defs><g id="SvgjsG1008" transform="matrix(1,0,0,1,0,0)"><svg xmlns="http://www.w3.org/2000/svg" viewBox="0 0 24 24" width="288" height="288"><path fill="#808080" d="M18 2H2C.897 2 0 2.897 0 4v11c0 1.103.897 2 2 2h16c1.103 0 2-.897 2-2V4c0-1.103-.897-2-2-2z" class="color2D98D4 svgShape"></path><path fill="#ffffff" d="M18 2H2C.897 2 0 2.897 0 4v.25c0-1.103.897-2 2-2h16c1.103 0 2 .897 2 2V4c0-1.103-.897-2-2-2z" opacity=".2" class="colorFFF svgShape"></path><path fill="#e6e6e6" d="M20 14.505l-7.5-7.487L2.56 17H18c1.103 0 2-.897 2-2v-.495z" class="colorE6E6E5 svgShape"></path><path fill="#f3f3f3" d="M6 10.018L.183 15.835A2.001 2.001 0 0 0 2 17h10.982L6 10.018z" class="colorF3F3F3 svgShape"></path><path fill="#010101" d="M2 17h16c1.103 0 2-.897 2-2v-.25c0 1.103-.897 2-2 2H2c-1.103 0-2-.897-2-2V15c0 1.103.897 2 2 2z" opacity=".1" class="color010101 svgShape"></path><circle cx="8" cy="6.018" r="1.982" fill="#a8a8a8" class="colorFFCF51 svgShape"></circle><circle cx="18.5" cy="16.5" r="5.5" fill="#676767" class="color0097CF svgShape"></circle><path fill="#010101" d="M18.5 21.75a5.622 5.622 0 0 1-5.263-3.654 5.5 5.5 0 0 0 10.526 0A5.622 5.622 0 0 1 18.5 21.75z" opacity=".1" class="color010101 svgShape"></path><path fill="#ffffff" d="M18.5 11.25a5.622 5.622 0 0 1 5.263 3.654 5.5 5.5 0 0 0-10.526 0A5.622 5.622 0 0 1 18.5 11.25z" opacity=".2" class="colorFFF svgShape"></path><path fill="#ffffff" d="M21.5 16l-3-3-3 3h2v4h2v-4z" class="colorFFF svgShape"></path><linearGradient id="a" x1="16.798" x2="21.26" y1="15.298" y2="19.76" gradientUnits="userSpaceOnUse"><stop offset="0" stop-color="#010101" stop-opacity=".1" class="stopColor010101 svgShape"></stop><stop offset="1" stop-color="#010101" stop-opacity="0" class="stopColor010101 svgShape"></stop></linearGradient><path fill="url(#a)" d="M21.5 16h-2v4h-2l1.917 1.917a5.5 5.5 0 0 0 4.304-3.696L21.5 16zm-4 0h-2l2 2v-2z"></path><linearGradient id="b" x1="-.49" x2="24.649" y1="4.608" y2="16.331" gradientUnits="userSpaceOnUse"><stop offset="0" stop-color="#ffffff" stop-opacity=".2" class="stopColorFFF svgShape"></stop><stop offset="1" stop-color="#ffffff" stop-opacity="0" class="stopColorFFF svgShape"></stop></linearGradient><path fill="url(#b)" d="M20 11.212V4c0-1.103-.897-2-2-2H2C.897 2 0 2.897 0 4v11c0 1.103.897 2 2 2h11.025A5.499 5.499 0 1 0 20 11.212z"></path></svg></g></svg>